<svg xmlns="http://www.w3.org/2000/svg" width="25" height="24" viewBox="0 0 25 24">
    <path fill="#C3C2E0" fill-rule="evenodd" d="M24.785 9.944a.514.514 0 0 0-.34-.194l-2.957-.435a9.158 9.158 0 0 0-.663-1.52c.194-.26.485-.624.872-1.095.388-.47.663-.814.825-1.032a.582.582 0 0 0 .129-.357.487.487 0 0 0-.113-.34c-.388-.529-1.277-1.408-2.667-2.64a.638.638 0 0 0-.404-.154.538.538 0 0 0-.388.14l-2.295 1.66a10.235 10.235 0 0 0-1.455-.575L14.876.547a.455.455 0 0 0-.186-.333.627.627 0 0 0-.396-.132h-3.589c-.312 0-.506.144-.582.434-.14.517-.296 1.48-.468 2.886a9.468 9.468 0 0 0-1.471.59l-2.231-1.66a.705.705 0 0 0-.42-.155c-.238 0-.747.37-1.528 1.11-.781.74-1.312 1.295-1.592 1.667-.097.135-.146.254-.146.357a.57.57 0 0 0 .162.373 35.551 35.551 0 0 1 1.73 2.142c-.27.475-.48.951-.63 1.427L.52 9.688a.488.488 0 0 0-.307.202.582.582 0 0 0-.13.356v3.445a.57.57 0 0 0 .13.365c.087.109.2.174.34.194l2.958.42c.15.506.372 1.018.663 1.535-.194.259-.485.624-.873 1.094-.388.471-.663.815-.824 1.032a.583.583 0 0 0-.017.714c.42.559 1.31 1.428 2.668 2.607.118.114.253.171.404.171a.597.597 0 0 0 .404-.14l2.28-1.66c.441.217.926.409 1.454.574l.453 2.856c.01.134.073.245.186.333a.625.625 0 0 0 .396.132h3.588c.313 0 .507-.145.583-.434.14-.518.296-1.48.468-2.887a9.442 9.442 0 0 0 1.471-.59l2.231 1.677c.151.093.291.139.42.139.237 0 .744-.367 1.52-1.102.776-.734 1.31-1.293 1.6-1.676a.506.506 0 0 0 .146-.357.586.586 0 0 0-.162-.388c-.776-.91-1.353-1.624-1.73-2.141.216-.383.426-.854.63-1.412l2.991-.435a.495.495 0 0 0 .324-.202.584.584 0 0 0 .128-.357v-3.445a.569.569 0 0 0-.129-.364zm-9.359 4.865c-.808.776-1.784 1.164-2.926 1.164-1.142 0-2.118-.388-2.926-1.164-.808-.776-1.212-1.712-1.212-2.809 0-1.097.404-2.033 1.212-2.809.808-.776 1.784-1.164 2.926-1.164 1.142 0 2.118.388 2.926 1.164.808.776 1.212 1.712 1.212 2.809 0 1.097-.404 2.033-1.212 2.809z"/>
</svg>
