<?xml version="1.0" encoding="UTF-8"?>
<svg width="720px" height="1024px" viewBox="0 0 720 1024" version="1.1" xmlns="http://www.w3.org/2000/svg" xmlns:xlink="http://www.w3.org/1999/xlink">
    <!-- Generator: sketchtool 59.1 (101010) - https://sketch.com -->
    <title>73F29779-5619-4497-97A9-C8D850446678</title>
    <desc>Created with sketchtool.</desc>
    <defs>
        <rect id="path-1" x="0" y="0" width="720" height="1024"></rect>
        <rect id="path-3" x="0" y="0" width="720" height="613"></rect>
        <path d="M0,61.3416556 C0.0763161058,61.6294417 13.3645132,90.7629583 82.2641647,90.4181667 C116.195409,90.24715 141.238125,73.9987278 170.235487,55.185975 C203.933185,33.3225056 242.127097,8.54347778 303.856713,2.23333056 C399.394363,-7.53025 470.025379,27.5906889 538.330132,61.5549667 C609.801544,97.0942528 678.002398,130.422275 764.239597,101.507586 L764.239597,115.202711 C739.657536,123.443692 719.997404,125.636567 698.02848,125.636567 C638.435715,125.641164 586.63271,99.8764917 532.627572,73.0222778 C465.95488,39.8680306 397.013852,5.58654444 305.158684,14.9731528 C246.5047,20.9670111 209.687236,44.8541778 177.205078,65.9287639 C147.794874,85.0099944 119.988227,101.790775 82.3294471,103.223269 C21.4678125,105.538431 0.353076923,79.5815944 0,77.9983111" id="path-5"></path>
        <linearGradient x1="0%" y1="50.0002124%" x2="99.9999748%" y2="50.0002124%" id="linearGradient-7">
            <stop stop-color="#FFBF5B" offset="0%"></stop>
            <stop stop-color="#FF3856" offset="100%"></stop>
        </linearGradient>
        <path d="M0,55.8111972 C0.511225962,55.1703444 9.14965745,43.9531222 34.1399639,33.2443528 C56.8922776,23.4936444 95.0659615,15.7160639 147.719477,34.0304778 C181.077891,45.6338667 208.782476,69.121075 235.575865,91.8368694 C289.924886,137.914828 336.862969,177.707464 418.378684,115.376486 C480.118413,68.1657722 538.318179,23.178275 595.583762,6.74228611 C651.593347,-9.33328056 709.985282,2.43468889 764.643245,57.0910639 L764.239597,74.1375639 C648.134297,-42.475575 549.274597,31.4073028 426.15741,125.549219 C393.546526,150.485472 365.447488,160.140558 340.323858,160.143317 C296.336358,160.146075 261.449784,130.562031 227.294189,101.604128 C201.396364,79.6487139 174.526659,57.1986389 143.512897,46.1266889 C48.8579387,12.3325083 0.433070913,74.0401028 0,74.582575" id="path-8"></path>
        <linearGradient x1="0%" y1="49.9998811%" x2="99.9999779%" y2="49.9998811%" id="linearGradient-10">
            <stop stop-color="#3FD4E6" offset="0%"></stop>
            <stop stop-color="#5477FF" offset="100%"></stop>
        </linearGradient>
        <path d="M391.726893,0.551666667 C405.79756,0.551666667 417.2036,11.9592139 417.2036,26.0276333 L417.2036,133.020625 C417.2036,147.090883 405.79756,158.496592 391.726893,158.496592 L26.2260757,158.496592 C12.1563281,158.496592 0.74936899,147.090883 0.74936899,133.020625 L0.74936899,26.0276333 C0.74936899,11.9592139 12.1563281,0.551666667 26.2260757,0.551666667" id="path-11"></path>
        <linearGradient x1="-2.30500212e-05%" y1="50.0002403%" x2="100.000019%" y2="50.0002403%" id="linearGradient-13">
            <stop stop-color="#3FA8E6" offset="0%"></stop>
            <stop stop-color="#1FA8FF" offset="100%"></stop>
        </linearGradient>
        <path d="M0.301846154,53.488931 C0.301846154,82.9074741 24.2529231,106.841345 53.6935385,106.841345 L53.6935385,106.841345 C83.1332308,106.841345 107.084308,82.9074741 107.084308,53.488931 L107.084308,53.488931 C107.084308,24.0713103 83.1332308,0.136517241 53.6935385,0.136517241 L53.6935385,0.136517241 C24.2529231,0.136517241 0.301846154,24.0713103 0.301846154,53.488931 M10.9846154,53.488931 C10.9846154,29.9553879 30.144,10.8106897 53.6935385,10.8106897 L53.6935385,10.8106897 C77.2421538,10.8106897 96.4024615,29.9553879 96.4024615,53.488931 L96.4024615,53.488931 C96.4024615,77.0215517 77.2421538,96.1671724 53.6935385,96.1671724 L53.6935385,96.1671724 C30.144,96.1671724 10.9846154,77.0215517 10.9846154,53.488931" id="path-14"></path>
        <linearGradient x1="102.648998%" y1="-114.650663%" x2="7.25676213%" y2="183.673414%" id="linearGradient-16">
            <stop stop-color="#3FD4E6" offset="0%"></stop>
            <stop stop-color="#5477FF" offset="100%"></stop>
        </linearGradient>
        <path d="M183.412962,181.775545 L13.3137062,181.775545 C6.06998383,181.775545 0.198533693,175.891312 0.198533693,168.630682 L0.198533693,13.4175627 C0.198533693,6.15785423 6.06998383,0.272699708 13.3137062,0.272699708 L183.412962,0.272699708 C190.655765,0.272699708 196.527216,6.15785423 196.527216,13.4175627 L196.527216,168.630682" id="path-17"></path>
        <linearGradient x1="50.0001476%" y1="107.007486%" x2="50.0001476%" y2="-62.2151188%" id="linearGradient-19">
            <stop stop-color="#8EC3F9" offset="0%"></stop>
            <stop stop-color="#B8EBFF" offset="100%"></stop>
        </linearGradient>
        <polygon id="path-20" points="0.17652439 85.7493191 74.192378 43.0045745 0.17652439 0.258914894"></polygon>
        <linearGradient x1="49.9993951%" y1="-96.8483748%" x2="49.9993951%" y2="172.685888%" id="linearGradient-22">
            <stop stop-color="#3FD4E6" offset="0%"></stop>
            <stop stop-color="#5477FF" offset="100%"></stop>
        </linearGradient>
        <polygon id="path-23" points="0 527 720 527 720 0.551832461 0 0.551832461"></polygon>
    </defs>
    <g id="BACKOFFICE" stroke="none" strokeWidth="1" fill="none" fill-rule="evenodd">
        <g id="Backoffice-Recuperar-contraseña-02-" transform="translate(-720.000000, 0.000000)">
            <g id="Group-3" transform="translate(720.000000, 0.000000)">
                <g id="Image">
                    <g id="Path-2">
                        <mask id="mask-2" fill="white">
                            <use xlink:href="#path-1"></use>
                        </mask>
                        <use id="Mask" fill="#FBFBFB" xlink:href="#path-1"></use>
                        <path d="M-176.60671,51.7025876 C-133.640672,-30.6189862 -59.9500496,-58.1132756 44.4651571,-30.7802806 C180.247791,4.76383367 232.410052,241.509405 505.9762,285.517 C782.174072,285.517 779.46315,462.89029 718.535158,685.841213 C657.607166,908.792136 247.160953,1033.50854 90.0545901,881.393146 C-67.0517733,729.277756 -171.909959,500.745269 -192.553976,453.694617 C-206.316654,422.327515 -201.000898,288.330172 -176.60671,51.7025876 Z" fill-opacity="0.38" fill="#2C80F2" fill-rule="nonzero" opacity="0.274762835" mask="url(#mask-2)"></path>
                    </g>
                </g>
                <g id="Group-82" transform="translate(0.000000, 251.000000)">
                    <mask id="mask-4" fill="white">
                        <use xlink:href="#path-3"></use>
                    </mask>
                    <g id="Mask"></g>
                    <g mask="url(#mask-4)">
                        <g transform="translate(337.500000, 283.500000) scale(-1, 1) translate(-337.500000, -283.500000) translate(-45.000000, 20.000000)">
                            <polygon id="Fill-1" fill="#E0E0E0" points="190 415 193 415 193 133 190 133"></polygon>
                            <polygon id="Fill-2" fill="#E0E0E0" points="381 415 384 415 384 133 381 133"></polygon>
                            <polygon id="Fill-3" fill="#E0E0E0" points="572 415 575 415 575 133 572 133"></polygon>
                            <polygon id="Fill-4" fill="#D9D9D9" points="0 105 46 105 46 98 0 98"></polygon>
                            <polygon id="Fill-5" fill="#D9D9D9" points="0 119 65 119 65 112 0 112"></polygon>
                            <polygon id="Fill-6" fill="#D9D9D9" points="189 105 243 105 243 98 189 98"></polygon>
                            <polygon id="Fill-7" fill="#D9D9D9" points="189 119 223 119 223 112 189 112"></polygon>
                            <polygon id="Fill-8" fill="#D9D9D9" points="384 105 417 105 417 98 384 98"></polygon>
                            <polygon id="Fill-9" fill="#D9D9D9" points="383 119 422 119 422 112 383 112"></polygon>
                            <polygon id="Fill-10" fill="#D9D9D9" points="575 105 623 105 623 98 575 98"></polygon>
                            <polygon id="Fill-11" fill="#D9D9D9" points="574 119 613 119 613 112 574 112"></polygon>
                            <polygon id="Fill-12" fill="#B8B8B8" points="191 442 221 442 221 432 191 432"></polygon>
                            <polygon id="Fill-13" fill="#B8B8B8" points="384 442 414 442 414 432 384 432"></polygon>
                            <polygon id="Fill-14" fill="#B8B8B8" points="575 442 605 442 605 432 575 432"></polygon>
                            <g id="Group-24" strokeWidth="1" fill="none">
                                <g id="Group-17" transform="translate(0.000000, 205.036111)">
                                    <mask id="mask-6" fill="white">
                                        <use xlink:href="#path-5"></use>
                                    </mask>
                                    <g id="Clip-16"></g>
                                    <path d="M698.02848,125.636567 C638.435715,125.641164 586.63271,99.8764917 532.627572,73.0222778 C465.95488,39.8680306 397.013852,5.58654444 305.158684,14.9731528 C246.5047,20.9670111 209.687236,44.8541778 177.205078,65.9287639 C147.794874,85.0099944 119.988227,101.790775 82.3294471,103.223269 C21.4678125,105.538431 0.353076923,79.5815944 0,77.9983111 L0,61.3416556 C0.0763161058,61.6294417 13.3645132,90.7629583 82.2641647,90.4181667 C116.195409,90.24715 141.238125,73.9987278 170.235487,55.185975 C203.933185,33.3225056 242.127097,8.54347778 303.856713,2.23333056 C399.394363,-7.53025 470.025379,27.5906889 538.330132,61.5549667 C609.801544,97.0942528 678.002398,130.422275 764.239597,101.507586 L764.239597,115.202711 C739.657536,123.443692 719.997404,125.636567 698.02848,125.636567" id="Fill-15" fill="url(#linearGradient-7)" mask="url(#mask-6)"></path>
                                </g>
                                <g id="Group-20" transform="translate(0.000000, 167.338889)">
                                    <mask id="mask-9" fill="white">
                                        <use xlink:href="#path-8"></use>
                                    </mask>
                                    <g id="Clip-19"></g>
                                    <path d="M340.323858,160.143317 C296.336358,160.146075 261.449784,130.562031 227.294189,101.604128 C201.396364,79.6487139 174.526659,57.1986389 143.512897,46.1266889 C48.8579387,12.3325083 0.433070913,74.0401028 0,74.582575 L0,55.8111972 C0.511225962,55.1703444 9.14965745,43.9531222 34.1399639,33.2443528 C56.8922776,23.4936444 95.0659615,15.7160639 147.719477,34.0304778 C181.077891,45.6338667 208.782476,69.121075 235.575865,91.8368694 C289.924886,137.914828 336.862969,177.707464 418.378684,115.376486 C480.118413,68.1657722 538.318179,23.178275 595.583762,6.74228611 C651.593347,-9.33328056 709.985282,2.43468889 764.643245,57.0910639 L764.239597,74.1375639 C648.134297,-42.475575 549.274597,31.4073028 426.15741,125.549219 C393.546526,150.485472 365.447488,160.140558 340.323858,160.143317" id="Fill-18" fill="url(#linearGradient-10)" mask="url(#mask-9)"></path>
                                </g>
                                <g id="Group-23" transform="translate(173.780048, 0.000000)">
                                    <mask id="mask-12" fill="white">
                                        <use xlink:href="#path-11"></use>
                                    </mask>
                                    <g id="Clip-22"></g>
                                    <path d="M391.726893,158.496592 L26.2260757,158.496592 C12.1563281,158.496592 0.74936899,147.090883 0.74936899,133.020625 L0.74936899,26.0276333 C0.74936899,11.9592139 12.1563281,0.551666667 26.2260757,0.551666667 L391.726893,0.551666667 C405.79756,0.551666667 417.2036,11.9592139 417.2036,26.0276333 L417.2036,133.020625 C417.2036,147.090883 405.79756,158.496592 391.726893,158.496592" id="Fill-21" fill="url(#linearGradient-13)" mask="url(#mask-12)"></path>
                                </g>
                            </g>
                            <g id="Group-27" strokeWidth="1" fill="none" transform="translate(447.000000, 29.000000)">
                                <mask id="mask-15" fill="white">
                                    <use xlink:href="#path-14"></use>
                                </mask>
                                <g id="Clip-26"></g>
                                <path d="M0.301846154,53.488931 C0.301846154,82.9074741 24.2529231,106.841345 53.6935385,106.841345 L53.6935385,106.841345 C83.1332308,106.841345 107.084308,82.9074741 107.084308,53.488931 L107.084308,53.488931 C107.084308,24.0713103 83.1332308,0.136517241 53.6935385,0.136517241 L53.6935385,0.136517241 C24.2529231,0.136517241 0.301846154,24.0713103 0.301846154,53.488931 M10.9846154,53.488931 C10.9846154,29.9553879 30.144,10.8106897 53.6935385,10.8106897 L53.6935385,10.8106897 C77.2421538,10.8106897 96.4024615,29.9553879 96.4024615,53.488931 L96.4024615,53.488931 C96.4024615,77.0215517 77.2421538,96.1671724 53.6935385,96.1671724 L53.6935385,96.1671724 C30.144,96.1671724 10.9846154,77.0215517 10.9846154,53.488931" id="Fill-25" fill="url(#linearGradient-16)" mask="url(#mask-15)"></path>
                            </g>
                            <g id="Group-41" strokeWidth="1" fill="none" transform="translate(213.000000, 42.000000)">
                                <polygon id="Fill-28" fill="#FFFFFF" points="54.0103558 13.0057493 199.356321 13.0057493 199.356321 0.199918367 54.0103558 0.199918367"></polygon>
                                <polygon id="Fill-30" fill="#FFFFFF" points="75.4510755 46.0070204 199.356321 46.0070204 199.356321 33.2011895 75.4510755 33.2011895"></polygon>
                                <polygon id="Fill-31" fill="#FFFFFF" points="0.118568733 79.0082915 199.356321 79.0082915 199.356321 66.2024606 0.118568733 66.2024606"></polygon>
                                <g id="Group-34" transform="translate(144.304582, 133.586006)">
                                    <mask id="mask-18" fill="white">
                                        <use xlink:href="#path-17"></use>
                                    </mask>
                                    <g id="Clip-33"></g>
                                    <path d="M183.412962,181.775545 L13.3137062,181.775545 C6.06998383,181.775545 0.198533693,175.891312 0.198533693,168.630682 L0.198533693,13.4175627 C0.198533693,6.15785423 6.06998383,0.272699708 13.3137062,0.272699708 L183.412962,0.272699708 C190.655765,0.272699708 196.527216,6.15785423 196.527216,13.4175627 L196.527216,168.630682 C196.527216,175.891312 190.655765,181.775545 183.412962,181.775545" id="Fill-32" fill="url(#linearGradient-19)" mask="url(#mask-18)"></path>
                                </g>
                                <polygon id="Fill-35" fill="#FFFFFF" points="167.781191 276.806787 234.485755 276.806787 234.485755 269.209889 167.781191 269.209889"></polygon>
                                <polygon id="Fill-36" fill="#5BB1F7" points="167.781191 276.806787 208.820679 276.806787 208.820679 269.209889 167.781191 269.209889"></polygon>
                                <polygon id="Fill-37" fill="#FFFFFF" points="167.781191 292.90344 271.81928 292.90344 271.81928 285.306542 167.781191 285.306542"></polygon>
                                <polygon id="Fill-38" fill="#5BB1F7" points="167.781191 292.90344 226.012226 292.90344 226.012226 285.306542 167.781191 285.306542"></polygon>
                                <path d="M317.36006,281.056665 C317.36006,289.748047 310.331416,296.793096 301.661192,296.793096 C292.990968,296.793096 285.962324,289.748047 285.962324,281.056665 C285.962324,272.366204 292.990968,265.321155 301.661192,265.321155 C310.331416,265.321155 317.36006,272.366204 317.36006,281.056665" id="Fill-39" fill="#5BB1F7"></path>
                                <polygon id="Fill-40" fill="#FFFFFF" points="300.12706 288.376533 293.182976 281.41532 296.244623 278.346527 300.12706 282.238026 307.077577 275.271285 310.139224 278.340078"></polygon>
                            </g>
                            <g id="Group-44" strokeWidth="1" fill="none" transform="translate(459.500000, 243.000000) rotate(-270.000000) translate(-459.500000, -243.000000) translate(422.000000, 200.000000)">
                                <mask id="mask-21" fill="white">
                                    <use xlink:href="#path-20"></use>
                                </mask>
                                <g id="Clip-43"></g>
                                <polygon id="Fill-42" fill="url(#linearGradient-22)" mask="url(#mask-21)" points="0.17652439 85.7493191 74.192378 43.0045745 0.17652439 0.258914894"></polygon>
                            </g>
                            <g id="Group-81" strokeWidth="1" fill="none">
                                <path d="M393.661644,489.154686 C393.661644,489.154686 407.550256,495.422583 413.753928,497.600482 C419.9576,499.776541 442.675893,497.329164 445.199841,499.278972 C447.72287,501.22878 447.828609,508.600342 444.17647,509.889791 C440.523411,511.180159 413.387059,517.876646 403.924781,516.921056 C394.463423,515.965466 377.810881,522.352927 373.836927,521.524258 C369.863892,520.698349 369.515412,498.371208 370.354889,493.22629 C371.194367,488.080452 393.661644,489.154686 393.661644,489.154686" id="Fill-45" fill="#484E7D"></path>
                                <path d="M390.46685,480.20985 L393.662012,489.155054 C393.662012,489.155054 376.921201,495.122202 370.354338,493.225738 L368.161399,484.104867 L390.46685,480.20985 Z" id="Fill-47" fill="#EEA886"></path>
                                <path d="M356.222342,497.114225 C356.222342,497.114225 369.321128,505.10384 375.240683,508.052465 C381.161158,511.002009 403.989788,511.46003 406.280191,513.716105 C408.571513,515.97402 407.8626,523.306953 404.092769,524.122746 C400.323856,524.939458 372.63858,528.140086 363.349163,525.989779 C354.058826,523.838552 336.819662,528.062829 332.965239,526.736592 C329.110816,525.410355 331.228358,503.196339 332.630551,498.194897 C334.031825,493.191616 356.222342,497.114225 356.222342,497.114225" id="Fill-49" fill="#5B639E"></path>
                                <path d="M354.263041,487.814561 L356.222434,497.113858 C356.222434,497.113858 338.940974,500.911385 332.630643,498.194529 L331.459237,488.859364 L354.263041,487.814561 Z" id="Fill-51" fill="#EEA886"></path>
                                <path d="M222.973134,320.411953 C222.973134,320.411953 282.700141,320.938034 290.02189,321.974559 C297.960604,323.098458 329.037809,324.102793 332.789252,329.796784 C370.665947,387.295887 395.387767,481.441264 395.387767,481.441264 L365.453465,487.335754 C365.453465,487.335754 336.503915,431.218072 324.37793,402.064763 C313.491391,375.893189 304.176229,369.165431 281.312659,369.742096 C258.450009,370.319681 185.331824,365.279611 143.172233,360.054677 L222.973134,320.411953 Z" id="Fill-53" fill="#292C47"></path>
                                <path d="M216.656643,181.921228 C216.656643,181.921228 234.376691,220.074004 232.942316,234.245982 C231.507941,248.41612 216.264948,287.699233 215.189167,295.591357 C214.113386,303.484401 221.824071,319.090223 221.824071,319.090223 L142.024089,356.040924 C142.024089,356.040924 138.808698,332.680017 142.024089,305.775425 C145.23948,278.870833 147.609876,249.952053 151.157196,234.74631 C163.261114,182.862102 195.284456,161.359031 195.284456,161.359031 L216.656643,181.921228 Z" id="Fill-55" fill="#EB4747"></path>
                                <path d="M221.824255,319.089855 C221.824255,319.089855 281.551262,319.615015 288.87393,320.65154 C296.812644,321.776359 328.591406,322.317155 331.640373,328.474685 C353.34357,372.314095 358.217686,489.333848 358.217686,489.333848 L330.295186,492.710143 C330.295186,492.710143 316.577596,433.320094 312.273552,405.034082 C307.970427,376.74715 302.590601,372.636917 279.727951,373.214502 C256.864381,373.791167 167.320763,396.688535 142.024273,356.041476 L221.824255,319.089855 Z" id="Fill-57" fill="#323657"></path>
                                <path d="M170.247164,217.957359 C170.420025,210.570162 174.710277,178.686202 192.691455,180.86778 C210.670794,183.049357 208.59187,204.625087 206.926707,220.898626 C205.185229,237.927256 196.35187,279.677061 199.161773,281.824609 C201.972597,283.972157 223.305247,290.381691 227.88973,291.299572 C232.475133,292.217453 260.128228,299.004073 262.40116,299.63776 C264.621683,300.255813 260.171443,311.015626 260.171443,311.015626 C260.171443,311.015626 183.585932,308.768748 170.774021,302.697671 C157.96211,296.625675 170.247164,217.957359 170.247164,217.957359" id="Fill-59" fill="#EEA886"></path>
                                <path d="M262.400793,299.637392 C262.400793,299.637392 268.0914,301.070317 270.835102,301.289211 C273.578803,301.507185 286.565414,296.35307 290.60557,297.097124 C294.645727,297.842098 320.630901,310.388009 321.794951,311.268181 C322.959921,312.147434 321.10259,313.87559 321.10259,313.87559 L260.171995,311.672858 L262.400793,299.637392 Z" id="Fill-61" fill="#EEA886"></path>
                                <polygon id="Fill-63" fill="#807066" points="338.321342 323.471956 236.994701 319.37644 237.369846 310.092778 338.696486 314.188295"></polygon>
                                <polygon id="Fill-65" fill="#807066" points="372.627362 228.006044 338.354075 323.47398 329.611743 320.334053 363.88595 224.866117"></polygon>
                                <path d="M263.129474,121.836698 C263.129474,121.836698 265.041974,137.502302 260.797695,138.159902 C257.291751,138.703457 258.526601,153.824586 258.526601,156.21678 C258.526601,158.608054 251.951463,157.771108 250.158494,158.608054 C248.364606,159.445919 238.16859,174.394141 233.044377,172.958457 C227.921084,171.523692 208.73356,155.099319 205.146703,146.441068 C201.560766,137.782816 207.717544,107.427432 216.445165,97.0235511 C225.171865,86.6187501 259.662148,94.4216611 263.129474,121.836698" id="Fill-67" fill="#EEA886"></path>
                                <path d="M223.169717,161.866992 C223.169717,161.866992 222.652974,163.236457 221.892572,165.368369 C221.330775,166.938333 220.637493,168.917572 219.915709,171.068799 C217.964591,176.898909 215.831418,183.97432 215.669591,187.428792 C215.367085,193.885231 195.283996,161.360226 195.283996,161.360226 C195.283996,161.360226 202.512878,141.769254 207.013689,118.85809 C211.512662,95.9460063 223.169717,161.866992 223.169717,161.866992" id="Fill-69" fill="#EEA886"></path>
                                <path d="M263.42444,125.1877 C263.42444,125.1877 276.011081,114.003896 267.134506,98.5774194 C258.257931,83.1518627 227.293821,92.0004962 224.334963,91.6418051 C221.376105,91.283114 205.929909,86.3810023 202.935191,116.156962 C199.940474,145.932922 201.828148,141.464918 201.828148,141.464918 C201.828148,141.464918 209.414704,128.683559 214.830389,130.745573 C220.246994,132.808507 229.714788,133.794447 229.714788,133.794447 C229.714788,133.794447 229.894085,119.893788 237.694879,120.969861 C245.495672,122.045934 257.259386,119.684091 263.42444,125.1877" id="Fill-71" fill="#434343"></path>
                                <path d="M168.881014,219.344114 L209.934481,220.827624 C209.934481,220.827624 216.309175,178.100156 192.711867,178.922386 C169.115479,179.744617 168.881014,219.344114 168.881014,219.344114" id="Fill-73" fill="#EB4747"></path>
                                <path d="M224.834971,123.883628 C224.856119,121.975208 225.618361,114.038017 217.849749,115.832393 C210.082056,117.626768 214.758487,134.982818 215.757952,135.575119 C216.758337,136.166499 224.653835,139.939194 224.834971,123.883628" id="Fill-75" fill="#EEA886"></path>
                                <mask id="mask-24" fill="white">
                                    <use xlink:href="#path-23"></use>
                                </mask>
                                <g id="Clip-78"></g>
                                <polygon id="Fill-77" fill="#FAB46C" points="104.021611 524.252794 277.203083 524.252794 277.203083 371.628812 104.021611 371.628812"></polygon>
                                <path d="M195.284364,161.358663 C195.284364,161.358663 230.512981,225.033691 229.595349,216.008471 C228.878162,208.953293 213.622296,174.87212 213.622296,174.87212 L195.284364,161.358663 Z" id="Fill-79" fill="#EEA886"></path>
                                <path d="M221.89248,165.368001 C221.330683,166.937965 220.637401,168.917204 219.916536,171.068431 C212.812702,162.230834 207.887095,152.227951 206.432492,149.112857 C209.334343,154.393893 221.89248,165.368001 221.89248,165.368001" id="Fill-80" fill="#A77860"></path>
                            </g>
                        </g>
                    </g>
                </g>
            </g>
        </g>
    </g>
</svg>