<svg xmlns="http://www.w3.org/2000/svg" xmlns:xlink="http://www.w3.org/1999/xlink" width="55" height="56" viewBox="0 0 55 56">
    <defs>
        <path id="a" d="M0 .134h54.765V54.9H0z"/>
    </defs>
    <g fill="none" fill-rule="evenodd">
        <g transform="translate(0 .766)">
            <mask id="b" fill="#fff">
                <use xlink:href="#a"/>
            </mask>
            <path fill="#322F78" d="M27.383 52.775c-13.928 0-25.258-11.331-25.258-25.258S13.455 2.26 27.383 2.26c13.927 0 25.257 11.33 25.257 25.257 0 13.927-11.33 25.258-25.257 25.258m0-52.641C12.284.134 0 12.418 0 27.517 0 42.616 12.284 54.9 27.383 54.9c15.1 0 27.382-12.284 27.382-27.383 0-15.1-12.283-27.383-27.382-27.383" mask="url(#b)"/>
        </g>
        <path fill="#322F78" d="M21.502 22.93l-4.994-2.408v16.083l10.875 6.801 10.875-6.801V20.522l-5.052 2.407z"/>
        <path fill="#322F78" d="M32.643 21.198l4.614-2.015-9.824-6.39-9.826 6.39 4.377 2.015z"/>
    </g>
</svg>
